<?xml version="1.0" encoding="utf-8"?>
<!-- Generator: Adobe Illustrator 24.3.0, SVG Export Plug-In . SVG Version: 6.00 Build 0)  -->
<svg version="1.1" id="Ebene_1" xmlns="http://www.w3.org/2000/svg" xmlns:xlink="http://www.w3.org/1999/xlink" x="0px" y="0px"
	 viewBox="0 0 500 500" style="enable-background:new 0 0 500 500;" xml:space="preserve">
<style type="text/css">
	.st0{fill:#566B8D;}
	.st1{fill:none;stroke:#566B8D;stroke-width:22;stroke-linecap:round;stroke-miterlimit:10;}
</style>
<g>
	<path class="st0" d="M411.8,53.7c19,0,34.5,15.5,34.5,34.5v323.6c0,19-15.5,34.5-34.5,34.5H88.2c-19,0-34.5-15.5-34.5-34.5V88.2
		c0-19,15.5-34.5,34.5-34.5L411.8,53.7 M411.8,36.7H88.2c-28.5,0-51.5,23.1-51.5,51.5v323.6c0,28.5,23.1,51.5,51.5,51.5h323.6
		c28.5,0,51.5-23.1,51.5-51.5V88.2C463.3,59.7,440.3,36.7,411.8,36.7L411.8,36.7z"/>
</g>
<g>
	<line class="st1" x1="174.8" y1="186.3" x2="407.2" y2="186.3"/>
	<line class="st1" x1="174.8" y1="250" x2="407.2" y2="250"/>
	<line class="st1" x1="174.8" y1="313.7" x2="407.2" y2="313.7"/>
	<line class="st1" x1="92.8" y1="186.3" x2="113.8" y2="186.3"/>
	<line class="st1" x1="92.8" y1="250" x2="113.8" y2="250"/>
	<line class="st1" x1="92.8" y1="313.7" x2="113.8" y2="313.7"/>
</g>
</svg>
